<svg width="198" height="43" viewBox="0 0 198 43" fill="none" xmlns="http://www.w3.org/2000/svg">
<path d="M26.04 9.8C26.04 11.5 25.44 12.97 24.24 14.21C23.04 15.43 21.29 16.31 18.99 16.85C20.23 17.19 21.17 17.75 21.81 18.53C22.45 19.29 22.77 20.17 22.77 21.17C22.77 22.75 22.27 24.12 21.27 25.28C20.29 26.44 18.85 27.34 16.95 27.98C15.05 28.6 12.76 28.91 10.08 28.91C9.08 28.91 8.28 28.88 7.68 28.82C7.66 29.38 7.42 29.8 6.96 30.08C6.5 30.36 5.91 30.5 5.19 30.5C4.47 30.5 3.97 30.34 3.69 30.02C3.43 29.7 3.32 29.23 3.36 28.61C3.54 25.81 3.89 22.88 4.41 19.82C4.93 16.74 5.59 13.77 6.39 10.91C6.53 10.41 6.81 10.06 7.23 9.86C7.65 9.66 8.2 9.56 8.88 9.56C10.1 9.56 10.71 9.9 10.71 10.58C10.71 10.86 10.65 11.18 10.53 11.54C10.01 13.1 9.49 15.22 8.97 17.9C8.45 20.56 8.08 23.1 7.86 25.52C8.82 25.6 9.6 25.64 10.2 25.64C13 25.64 15.05 25.24 16.35 24.44C17.67 23.62 18.33 22.58 18.33 21.32C18.33 20.44 17.95 19.7 17.19 19.1C16.45 18.5 15.2 18.17 13.44 18.11C13.04 18.09 12.76 17.99 12.6 17.81C12.44 17.63 12.36 17.34 12.36 16.94C12.36 16.36 12.48 15.89 12.72 15.53C12.96 15.17 13.4 14.98 14.04 14.96C15.46 14.92 16.74 14.71 17.88 14.33C19.04 13.95 19.95 13.42 20.61 12.74C21.27 12.04 21.6 11.23 21.6 10.31C21.6 9.15 21.03 8.24 19.89 7.58C18.75 6.9 17 6.56 14.64 6.56C12.5 6.56 10.43 6.84 8.43 7.4C6.43 7.94 4.73 8.63 3.33 9.47C2.69 9.85 2.15 10.04 1.71 10.04C1.35 10.04 1.07 9.92 0.87 9.68C0.69 9.42 0.6 9.1 0.6 8.72C0.6 8.22 0.7 7.79 0.9 7.43C1.12 7.07 1.63 6.66 2.43 6.2C4.11 5.24 6.08 4.49 8.34 3.95C10.6 3.41 12.91 3.14 15.27 3.14C18.89 3.14 21.59 3.75 23.37 4.97C25.15 6.19 26.04 7.8 26.04 9.8ZM28.7433 29.15C27.5033 29.15 26.5133 28.7 25.7733 27.8C25.0333 26.9 24.6633 25.72 24.6633 24.26C24.6633 22.66 25.0333 21.15 25.7733 19.73C26.5133 18.29 27.4933 17.14 28.7133 16.28C29.9533 15.4 31.2633 14.96 32.6433 14.96C33.0833 14.96 33.3733 15.05 33.5133 15.23C33.6733 15.39 33.8033 15.69 33.9033 16.13C34.3233 16.05 34.7633 16.01 35.2233 16.01C36.2033 16.01 36.6933 16.36 36.6933 17.06C36.6933 17.48 36.5433 18.48 36.2433 20.06C35.7833 22.36 35.5533 23.96 35.5533 24.86C35.5533 25.16 35.6233 25.4 35.7633 25.58C35.9233 25.76 36.1233 25.85 36.3633 25.85C36.7433 25.85 37.2033 25.61 37.7433 25.13C38.2833 24.63 39.0133 23.83 39.9333 22.73C40.1733 22.45 40.4433 22.31 40.7433 22.31C41.0033 22.31 41.2033 22.43 41.3433 22.67C41.5033 22.91 41.5833 23.24 41.5833 23.66C41.5833 24.46 41.3933 25.08 41.0133 25.52C40.1933 26.54 39.3233 27.4 38.4033 28.1C37.4833 28.8 36.5933 29.15 35.7333 29.15C35.0733 29.15 34.4633 28.93 33.9033 28.49C33.3633 28.03 32.9533 27.41 32.6733 26.63C31.6333 28.31 30.3233 29.15 28.7433 29.15ZM29.8233 26.12C30.2633 26.12 30.6833 25.86 31.0833 25.34C31.4833 24.82 31.7733 24.13 31.9533 23.27L33.0633 17.75C32.2233 17.77 31.4433 18.09 30.7233 18.71C30.0233 19.31 29.4633 20.11 29.0433 21.11C28.6233 22.11 28.4133 23.17 28.4133 24.29C28.4133 24.91 28.5333 25.37 28.7733 25.67C29.0333 25.97 29.3833 26.12 29.8233 26.12ZM50.5151 22.31C50.7751 22.31 50.9751 22.43 51.1151 22.67C51.2751 22.91 51.3551 23.24 51.3551 23.66C51.3551 24.46 51.1651 25.08 50.7851 25.52C49.9251 26.58 48.9851 27.45 47.9651 28.13C46.9651 28.81 45.8251 29.15 44.5451 29.15C42.7851 29.15 41.4751 28.35 40.6151 26.75C39.7751 25.15 39.3551 23.08 39.3551 20.54C39.3551 18.1 39.6651 15.32 40.2851 12.2C40.9251 9.08 41.8551 6.4 43.0751 4.16C44.3151 1.92 45.7851 0.799998 47.4851 0.799998C48.4451 0.799998 49.1951 1.25 49.7351 2.15C50.2951 3.03 50.5751 4.3 50.5751 5.96C50.5751 8.34 49.9151 11.1 48.5951 14.24C47.2751 17.38 45.4851 20.49 43.2251 23.57C43.3651 24.39 43.5951 24.98 43.9151 25.34C44.2351 25.68 44.6551 25.85 45.1751 25.85C45.9951 25.85 46.7151 25.62 47.3351 25.16C47.9551 24.68 48.7451 23.87 49.7051 22.73C49.9451 22.45 50.2151 22.31 50.5151 22.31ZM46.8251 3.77C46.3651 3.77 45.8451 4.6 45.2651 6.26C44.6851 7.92 44.1751 9.98 43.7351 12.44C43.2951 14.9 43.0551 17.26 43.0151 19.52C44.4351 17.18 45.5651 14.84 46.4051 12.5C47.2451 10.14 47.6651 7.99 47.6651 6.05C47.6651 4.53 47.3851 3.77 46.8251 3.77ZM52.3273 29.15C51.0873 29.15 50.0973 28.7 49.3573 27.8C48.6173 26.9 48.2473 25.72 48.2473 24.26C48.2473 22.66 48.6173 21.15 49.3573 19.73C50.0973 18.29 51.0773 17.14 52.2973 16.28C53.5373 15.4 54.8473 14.96 56.2273 14.96C56.6673 14.96 56.9573 15.05 57.0973 15.23C57.2573 15.39 57.3873 15.69 57.4873 16.13C57.9073 16.05 58.3473 16.01 58.8073 16.01C59.7873 16.01 60.2773 16.36 60.2773 17.06C60.2773 17.48 60.1273 18.48 59.8273 20.06C59.3673 22.36 59.1373 23.96 59.1373 24.86C59.1373 25.16 59.2073 25.4 59.3473 25.58C59.5073 25.76 59.7073 25.85 59.9473 25.85C60.3273 25.85 60.7873 25.61 61.3273 25.13C61.8673 24.63 62.5973 23.83 63.5173 22.73C63.7573 22.45 64.0273 22.31 64.3273 22.31C64.5873 22.31 64.7873 22.43 64.9273 22.67C65.0873 22.91 65.1673 23.24 65.1673 23.66C65.1673 24.46 64.9773 25.08 64.5973 25.52C63.7773 26.54 62.9073 27.4 61.9873 28.1C61.0673 28.8 60.1773 29.15 59.3173 29.15C58.6573 29.15 58.0473 28.93 57.4873 28.49C56.9473 28.03 56.5373 27.41 56.2573 26.63C55.2173 28.31 53.9073 29.15 52.3273 29.15ZM53.4073 26.12C53.8473 26.12 54.2673 25.86 54.6673 25.34C55.0673 24.82 55.3573 24.13 55.5373 23.27L56.6473 17.75C55.8073 17.77 55.0273 18.09 54.3073 18.71C53.6073 19.31 53.0473 20.11 52.6273 21.11C52.2073 22.11 51.9973 23.17 51.9973 24.29C51.9973 24.91 52.1173 25.37 52.3573 25.67C52.6173 25.97 52.9673 26.12 53.4073 26.12ZM68.4591 29.15C66.4991 29.15 64.9691 28.6 63.8691 27.5C62.7891 26.38 62.2491 24.91 62.2491 23.09C62.2491 21.47 62.5691 20.05 63.2091 18.83C63.8491 17.61 64.6791 16.67 65.6991 16.01C66.7191 15.35 67.7891 15.02 68.9091 15.02C70.0091 15.02 70.8591 15.35 71.4591 16.01C72.0791 16.65 72.3891 17.48 72.3891 18.5C72.3891 19.34 72.1991 20.05 71.8191 20.63C71.4591 21.21 70.9791 21.5 70.3791 21.5C69.9991 21.5 69.6891 21.41 69.4491 21.23C69.2291 21.05 69.1191 20.8 69.1191 20.48C69.1191 20.34 69.1391 20.18 69.1791 20C69.2191 19.82 69.2491 19.69 69.2691 19.61C69.3691 19.31 69.4191 19.03 69.4191 18.77C69.4191 18.51 69.3491 18.31 69.2091 18.17C69.0891 18.03 68.9091 17.96 68.6691 17.96C68.2091 17.96 67.7791 18.17 67.3791 18.59C66.9791 18.99 66.6591 19.54 66.4191 20.24C66.1791 20.94 66.0591 21.71 66.0591 22.55C66.0591 24.87 67.0691 26.03 69.0891 26.03C69.9091 26.03 70.7891 25.76 71.7291 25.22C72.6891 24.66 73.6291 23.83 74.5491 22.73C74.7891 22.45 75.0591 22.31 75.3591 22.31C75.6191 22.31 75.8191 22.43 75.9591 22.67C76.1191 22.91 76.1991 23.24 76.1991 23.66C76.1991 24.42 76.0091 25.04 75.6291 25.52C74.6891 26.68 73.5591 27.58 72.2391 28.22C70.9391 28.84 69.6791 29.15 68.4591 29.15ZM85.144 22.31C85.404 22.31 85.604 22.43 85.744 22.67C85.904 22.91 85.984 23.24 85.984 23.66C85.984 24.46 85.794 25.08 85.414 25.52C84.554 26.58 83.614 27.45 82.594 28.13C81.594 28.81 80.454 29.15 79.174 29.15C77.414 29.15 76.104 28.35 75.244 26.75C74.404 25.15 73.984 23.08 73.984 20.54C73.984 18.1 74.294 15.32 74.914 12.2C75.554 9.08 76.484 6.4 77.704 4.16C78.944 1.92 80.414 0.799998 82.114 0.799998C83.074 0.799998 83.824 1.25 84.364 2.15C84.924 3.03 85.204 4.3 85.204 5.96C85.204 8.34 84.544 11.1 83.224 14.24C81.904 17.38 80.114 20.49 77.854 23.57C77.994 24.39 78.224 24.98 78.544 25.34C78.864 25.68 79.284 25.85 79.804 25.85C80.624 25.85 81.344 25.62 81.964 25.16C82.584 24.68 83.374 23.87 84.334 22.73C84.574 22.45 84.844 22.31 85.144 22.31ZM81.454 3.77C80.994 3.77 80.474 4.6 79.894 6.26C79.314 7.92 78.804 9.98 78.364 12.44C77.924 14.9 77.684 17.26 77.644 19.52C79.064 17.18 80.194 14.84 81.034 12.5C81.874 10.14 82.294 7.99 82.294 6.05C82.294 4.53 82.014 3.77 81.454 3.77ZM86.9562 29.15C85.7162 29.15 84.7262 28.7 83.9862 27.8C83.2462 26.9 82.8762 25.72 82.8762 24.26C82.8762 22.66 83.2462 21.15 83.9862 19.73C84.7262 18.29 85.7062 17.14 86.9262 16.28C88.1662 15.4 89.4762 14.96 90.8562 14.96C91.2962 14.96 91.5862 15.05 91.7262 15.23C91.8862 15.39 92.0162 15.69 92.1162 16.13C92.5362 16.05 92.9762 16.01 93.4362 16.01C94.4162 16.01 94.9062 16.36 94.9062 17.06C94.9062 17.48 94.7562 18.48 94.4562 20.06C93.9962 22.36 93.7662 23.96 93.7662 24.86C93.7662 25.16 93.8362 25.4 93.9762 25.58C94.1362 25.76 94.3362 25.85 94.5762 25.85C94.9562 25.85 95.4162 25.61 95.9562 25.13C96.4962 24.63 97.2262 23.83 98.1462 22.73C98.3862 22.45 98.6562 22.31 98.9562 22.31C99.2162 22.31 99.4162 22.43 99.5562 22.67C99.7162 22.91 99.7962 23.24 99.7962 23.66C99.7962 24.46 99.6062 25.08 99.2262 25.52C98.4062 26.54 97.5362 27.4 96.6162 28.1C95.6962 28.8 94.8062 29.15 93.9462 29.15C93.2862 29.15 92.6762 28.93 92.1162 28.49C91.5762 28.03 91.1662 27.41 90.8862 26.63C89.8462 28.31 88.5362 29.15 86.9562 29.15ZM88.0362 26.12C88.4762 26.12 88.8962 25.86 89.2962 25.34C89.6962 24.82 89.9862 24.13 90.1662 23.27L91.2762 17.75C90.4362 17.77 89.6562 18.09 88.9362 18.71C88.2362 19.31 87.6762 20.11 87.2562 21.11C86.8362 22.11 86.6262 23.17 86.6262 24.29C86.6262 24.91 86.7462 25.37 86.9862 25.67C87.2462 25.97 87.5962 26.12 88.0362 26.12ZM112.501 19.88C112.561 19.86 112.661 19.85 112.801 19.85C113.101 19.85 113.331 19.95 113.491 20.15C113.651 20.35 113.731 20.62 113.731 20.96C113.731 21.58 113.611 22.07 113.371 22.43C113.131 22.77 112.771 23.02 112.291 23.18C111.371 23.48 110.391 23.63 109.351 23.63C108.471 23.63 107.641 23.51 106.861 23.27C106.281 24.21 105.641 25.18 104.941 26.18C104.141 27.32 103.451 28.1 102.871 28.52C102.291 28.94 101.631 29.15 100.891 29.15C100.071 29.15 99.4209 28.83 98.9409 28.19C98.4809 27.55 98.1909 26.54 98.0709 25.16C97.8309 22.36 97.7109 19.91 97.7109 17.81V16.76C97.7309 16.1 97.9109 15.64 98.2509 15.38C98.5909 15.12 99.1009 14.99 99.7809 14.99C100.301 14.99 100.681 15.11 100.921 15.35C101.181 15.57 101.311 15.95 101.311 16.49C101.311 18.79 101.451 21.78 101.731 25.46C102.931 23.68 103.831 22.26 104.431 21.2C104.131 20.62 103.981 19.93 103.981 19.13C103.981 18.45 104.131 17.79 104.431 17.15C104.731 16.51 105.141 15.99 105.661 15.59C106.181 15.19 106.771 14.99 107.431 14.99C108.011 14.99 108.481 15.2 108.841 15.62C109.201 16.02 109.381 16.61 109.381 17.39C109.381 18.29 109.141 19.32 108.661 20.48C109.421 20.44 110.431 20.29 111.691 20.03L112.501 19.88ZM114.578 29.15C113.438 29.15 112.508 28.7 111.788 27.8C111.088 26.9 110.738 25.72 110.738 24.26C110.738 22.66 111.108 21.15 111.848 19.73C112.588 18.29 113.568 17.14 114.788 16.28C116.028 15.4 117.338 14.96 118.718 14.96C119.158 14.96 119.448 15.05 119.588 15.23C119.748 15.39 119.878 15.69 119.978 16.13C120.358 16.05 120.778 16.01 121.238 16.01C121.718 16.01 122.088 16.13 122.348 16.37C122.608 16.61 122.738 16.95 122.738 17.39C122.738 17.85 122.638 18.65 122.438 19.79C122.218 21.01 122.048 22.18 121.928 23.3C121.808 24.4 121.748 25.64 121.748 27.02C121.748 27.78 121.588 28.33 121.268 28.67C120.968 28.99 120.468 29.15 119.768 29.15C119.088 29.15 118.578 28.99 118.238 28.67C117.918 28.33 117.758 27.79 117.758 27.05L117.788 26.57C117.168 28.29 116.098 29.15 114.578 29.15ZM115.748 26.12C116.308 26.12 116.818 25.73 117.278 24.95C117.738 24.17 118.148 22.78 118.507 20.78L119.078 17.75C118.258 17.77 117.498 18.09 116.798 18.71C116.098 19.31 115.538 20.11 115.118 21.11C114.698 22.11 114.488 23.17 114.488 24.29C114.488 24.89 114.598 25.35 114.818 25.67C115.058 25.97 115.368 26.12 115.748 26.12ZM158.127 22.37C158.387 22.37 158.587 22.5 158.727 22.76C158.887 23 158.967 23.31 158.967 23.69C158.967 24.15 158.897 24.51 158.757 24.77C158.617 25.03 158.397 25.26 158.097 25.46C156.917 26.24 155.037 27.52 152.457 29.3C151.677 33.44 150.667 36.7 149.427 39.08C148.187 41.46 146.617 42.65 144.717 42.65C143.697 42.65 142.867 42.33 142.227 41.69C141.587 41.07 141.267 40.25 141.267 39.23C141.267 38.29 141.477 37.34 141.897 36.38C142.317 35.42 143.097 34.31 144.237 33.05C145.397 31.79 147.027 30.35 149.127 28.73L149.217 28.16C147.637 28.82 146.087 29.15 144.567 29.15C142.327 29.15 140.357 28.72 138.657 27.86C136.957 26.98 135.637 25.74 134.697 24.14C133.757 22.54 133.287 20.68 133.287 18.56C133.287 15.6 133.847 12.99 134.967 10.73C136.087 8.45 137.627 6.69 139.587 5.45C141.567 4.19 143.777 3.56 146.217 3.56C148.557 3.56 150.307 4.11 151.467 5.21C152.647 6.29 153.237 7.73 153.237 9.53C153.237 10.71 153.017 11.66 152.577 12.38C152.157 13.08 151.547 13.43 150.747 13.43C150.207 13.43 149.767 13.3 149.427 13.04C149.107 12.78 148.947 12.42 148.947 11.96C148.947 11.76 148.987 11.42 149.067 10.94C149.187 10.38 149.247 9.94 149.247 9.62C149.247 8.78 148.987 8.13 148.467 7.67C147.967 7.21 147.117 6.98 145.917 6.98C144.457 6.98 143.097 7.4 141.837 8.24C140.597 9.08 139.597 10.34 138.837 12.02C138.077 13.68 137.697 15.68 137.697 18.02C137.697 20.42 138.347 22.28 139.647 23.6C140.967 24.9 142.867 25.55 145.347 25.55C146.727 25.55 148.167 25.24 149.667 24.62L150.087 20.96H147.027C146.467 20.96 146.037 20.83 145.737 20.57C145.437 20.29 145.287 19.84 145.287 19.22C145.287 18.66 145.437 18.22 145.737 17.9C146.037 17.58 146.437 17.42 146.937 17.42H152.547C152.987 17.42 153.347 17.57 153.627 17.87C153.927 18.15 154.047 18.56 153.987 19.1C153.927 19.74 153.727 21.19 153.387 23.45L153.057 25.73C154.657 24.53 156.117 23.49 157.437 22.61C157.697 22.45 157.927 22.37 158.127 22.37ZM145.047 39.74C145.567 39.74 146.137 39.15 146.757 37.97C147.377 36.79 147.957 34.89 148.497 32.27C146.977 33.57 145.877 34.74 145.197 35.78C144.537 36.84 144.207 37.77 144.207 38.57C144.207 39.35 144.487 39.74 145.047 39.74ZM160.731 13.04C159.891 13.04 159.261 12.85 158.841 12.47C158.421 12.07 158.211 11.52 158.211 10.82C158.211 10.12 158.481 9.54 159.021 9.08C159.581 8.6 160.271 8.36 161.091 8.36C161.831 8.36 162.431 8.54 162.891 8.9C163.351 9.26 163.581 9.77 163.581 10.43C163.581 11.23 163.321 11.87 162.801 12.35C162.281 12.81 161.591 13.04 160.731 13.04ZM160.491 29.15C159.191 29.15 158.241 28.69 157.641 27.77C157.061 26.85 156.771 25.63 156.771 24.11C156.771 23.21 156.881 22.06 157.101 20.66C157.341 19.24 157.641 17.92 158.001 16.7C158.181 16.06 158.421 15.62 158.721 15.38C159.021 15.14 159.501 15.02 160.161 15.02C161.181 15.02 161.691 15.36 161.691 16.04C161.691 16.54 161.501 17.7 161.121 19.52C160.641 21.72 160.401 23.21 160.401 23.99C160.401 24.59 160.481 25.05 160.641 25.37C160.801 25.69 161.071 25.85 161.451 25.85C161.811 25.85 162.261 25.6 162.801 25.1C163.341 24.6 164.061 23.81 164.961 22.73C165.201 22.45 165.471 22.31 165.771 22.31C166.031 22.31 166.231 22.43 166.371 22.67C166.531 22.91 166.611 23.24 166.611 23.66C166.611 24.46 166.421 25.08 166.041 25.52C164.061 27.94 162.211 29.15 160.491 29.15ZM166.314 29.15C165.554 29.15 165.014 28.75 164.694 27.95C164.394 27.15 164.244 25.87 164.244 24.11C164.244 21.51 164.614 19.04 165.354 16.7C165.534 16.12 165.824 15.7 166.224 15.44C166.644 15.16 167.224 15.02 167.964 15.02C168.364 15.02 168.644 15.07 168.804 15.17C168.964 15.27 169.044 15.46 169.044 15.74C169.044 16.06 168.894 16.78 168.594 17.9C168.394 18.7 168.234 19.4 168.114 20C167.994 20.6 167.894 21.34 167.814 22.22C168.474 20.5 169.214 19.1 170.034 18.02C170.854 16.94 171.654 16.17 172.434 15.71C173.234 15.25 173.964 15.02 174.624 15.02C175.924 15.02 176.574 15.67 176.574 16.97C176.574 17.23 176.484 17.86 176.304 18.86C176.144 19.66 176.064 20.16 176.064 20.36C176.064 21.06 176.314 21.41 176.814 21.41C177.374 21.41 178.094 20.97 178.974 20.09C179.234 19.83 179.504 19.7 179.784 19.7C180.044 19.7 180.244 19.82 180.384 20.06C180.544 20.28 180.624 20.58 180.624 20.96C180.624 21.7 180.424 22.28 180.024 22.7C179.464 23.28 178.804 23.78 178.044 24.2C177.304 24.6 176.514 24.8 175.674 24.8C174.614 24.8 173.804 24.53 173.244 23.99C172.704 23.45 172.434 22.72 172.434 21.8C172.434 21.5 172.464 21.2 172.524 20.9C172.564 20.5 172.584 20.23 172.584 20.09C172.584 19.77 172.474 19.61 172.254 19.61C171.954 19.61 171.554 19.95 171.054 20.63C170.574 21.29 170.094 22.17 169.614 23.27C169.134 24.37 168.744 25.53 168.444 26.75C168.224 27.69 167.964 28.33 167.664 28.67C167.384 28.99 166.934 29.15 166.314 29.15ZM189.206 22.31C189.466 22.31 189.666 22.43 189.806 22.67C189.966 22.91 190.046 23.24 190.046 23.66C190.046 24.46 189.856 25.08 189.476 25.52C188.616 26.58 187.676 27.45 186.656 28.13C185.656 28.81 184.516 29.15 183.236 29.15C181.476 29.15 180.166 28.35 179.306 26.75C178.466 25.15 178.046 23.08 178.046 20.54C178.046 18.1 178.356 15.32 178.976 12.2C179.616 9.08 180.546 6.4 181.766 4.16C183.006 1.92 184.476 0.799998 186.176 0.799998C187.136 0.799998 187.886 1.25 188.426 2.15C188.986 3.03 189.266 4.3 189.266 5.96C189.266 8.34 188.606 11.1 187.286 14.24C185.966 17.38 184.176 20.49 181.916 23.57C182.056 24.39 182.286 24.98 182.606 25.34C182.926 25.68 183.346 25.85 183.866 25.85C184.686 25.85 185.406 25.62 186.026 25.16C186.646 24.68 187.436 23.87 188.396 22.73C188.636 22.45 188.906 22.31 189.206 22.31ZM185.516 3.77C185.056 3.77 184.536 4.6 183.956 6.26C183.376 7.92 182.866 9.98 182.426 12.44C181.986 14.9 181.746 17.26 181.706 19.52C183.126 17.18 184.256 14.84 185.096 12.5C185.936 10.14 186.356 7.99 186.356 6.05C186.356 4.53 186.076 3.77 185.516 3.77ZM193.202 29.81C192.162 29.81 191.362 29.57 190.802 29.09C190.262 28.61 189.992 28.07 189.992 27.47C189.992 26.95 190.182 26.5 190.562 26.12C190.942 25.74 191.502 25.55 192.242 25.55C192.502 25.55 192.802 25.58 193.142 25.64C193.502 25.68 193.772 25.71 193.952 25.73C193.932 25.21 193.812 24.72 193.592 24.26C193.392 23.8 193.132 23.36 192.812 22.94C192.492 22.5 192.192 22.12 191.912 21.8C191.292 22.98 190.672 23.96 190.052 24.74C189.452 25.52 188.792 26.26 188.072 26.96C187.712 27.32 187.332 27.5 186.932 27.5C186.612 27.5 186.352 27.39 186.152 27.17C185.952 26.93 185.852 26.64 185.852 26.3C185.852 25.9 185.992 25.53 186.272 25.19L186.662 24.71C187.762 23.35 188.592 22.23 189.152 21.35C189.512 20.77 189.872 20.08 190.232 19.28C190.612 18.48 191.102 17.39 191.702 16.01C192.082 15.13 192.872 14.69 194.072 14.69C194.632 14.69 195.022 14.74 195.242 14.84C195.462 14.94 195.572 15.1 195.572 15.32C195.572 15.44 195.532 15.63 195.452 15.89C195.372 16.15 195.262 16.41 195.122 16.67C194.762 17.39 194.582 18 194.582 18.5C194.582 18.8 194.682 19.13 194.882 19.49C195.102 19.85 195.432 20.3 195.872 20.84C196.512 21.68 196.992 22.4 197.312 23C197.652 23.58 197.822 24.22 197.822 24.92C197.822 25.76 197.622 26.56 197.222 27.32C196.842 28.06 196.302 28.66 195.602 29.12C194.902 29.58 194.102 29.81 193.202 29.81Z" fill="white"/>
</svg>
