<svg width="502" height="266" viewBox="0 0 502 266" fill="none" xmlns="http://www.w3.org/2000/svg">
<path d="M149.92 53H145.12V25.976H164.368V30.2H149.92V36.824H160.96V40.808H149.92V53ZM167.038 53V25.976H171.838V53H167.038ZM182.796 53.48C181.068 53.48 179.724 53.144 178.764 52.472C177.804 51.8 177.1 50.936 176.652 49.88C176.236 48.824 175.98 47.72 175.884 46.568C175.788 45.384 175.74 44.312 175.74 43.352V33.272H180.492V43.352C180.492 44.344 180.588 45.288 180.78 46.184C180.972 47.08 181.372 47.8 181.98 48.344C182.62 48.888 183.58 49.16 184.86 49.16C186.108 49.16 187.052 48.888 187.692 48.344C188.332 47.768 188.764 47.048 188.988 46.184C189.212 45.32 189.34 44.424 189.372 43.496L189.42 33.272H194.412V53H190.236L189.42 49.256H189.324C189.26 49.448 189.1 49.768 188.844 50.216C188.588 50.664 188.204 51.144 187.692 51.656C187.212 52.168 186.572 52.6 185.772 52.952C184.972 53.304 183.98 53.48 182.796 53.48ZM204.537 53C202.969 53 201.785 52.616 200.985 51.848C200.217 51.08 199.833 49.832 199.833 48.104V36.728H196.857V33.272C197.785 33.272 198.505 33.176 199.017 32.984C199.529 32.792 199.897 32.344 200.121 31.64C200.345 30.936 200.457 29.8 200.457 28.232H204.393V33.272H208.905V36.728H204.393V49.16H209.001V53H204.537ZM219.162 53C217.594 53 216.41 52.616 215.61 51.848C214.842 51.08 214.458 49.832 214.458 48.104V36.728H211.482V33.272C212.41 33.272 213.13 33.176 213.642 32.984C214.154 32.792 214.522 32.344 214.746 31.64C214.97 30.936 215.082 29.8 215.082 28.232H219.018V33.272H223.53V36.728H219.018V49.16H223.626V53H219.162ZM236.195 53.48C233.923 53.48 232.067 53 230.627 52.04C229.219 51.048 228.163 49.8 227.459 48.296C226.787 46.76 226.435 45.144 226.403 43.448C226.371 41.464 226.739 39.704 227.507 38.168C228.307 36.6 229.427 35.384 230.867 34.52C232.339 33.624 234.067 33.176 236.051 33.176C237.811 33.176 239.379 33.56 240.755 34.328C242.163 35.096 243.283 36.184 244.115 37.592C244.947 38.968 245.379 40.6 245.411 42.488C245.411 42.552 245.411 42.728 245.411 43.016C245.411 43.304 245.411 43.544 245.411 43.736H231.059C231.059 45.56 231.507 46.968 232.403 47.96C233.299 48.92 234.531 49.4 236.099 49.4C237.315 49.4 238.323 49.096 239.123 48.488C239.955 47.88 240.451 47.08 240.611 46.088H245.363C245.139 48.168 244.243 49.928 242.675 51.368C241.107 52.776 238.947 53.48 236.195 53.48ZM231.203 41.528H240.515C240.483 41.304 240.403 40.952 240.275 40.472C240.179 39.992 239.971 39.496 239.651 38.984C239.363 38.472 238.915 38.04 238.307 37.688C237.699 37.336 236.915 37.16 235.955 37.16C234.675 37.16 233.699 37.432 233.027 37.976C232.387 38.488 231.923 39.096 231.635 39.8C231.379 40.472 231.235 41.048 231.203 41.528ZM249.391 53V33.272H253.951L254.287 38.744C254.479 37.912 254.847 37.08 255.391 36.248C255.967 35.384 256.751 34.68 257.743 34.136C258.767 33.56 260.079 33.272 261.679 33.272H262.399V38.744H261.679C258.927 38.744 257.007 39.192 255.919 40.088C254.831 40.952 254.287 42.424 254.287 44.504V53H249.391ZM269.615 53L265.007 34.088V33.224H269.807L273.071 48.92H273.167L277.391 33.224H281.615L285.983 48.92H286.079L289.343 33.224H294.095V34.088L289.439 53H282.623L279.551 41.72H279.455L276.527 53H269.615ZM303.778 53.48C301.058 53.48 299.122 52.552 297.97 50.696C296.818 48.84 296.242 46.408 296.242 43.4C296.242 40.36 296.818 37.912 297.97 36.056C299.154 34.168 301.09 33.224 303.778 33.224C305.314 33.224 306.53 33.496 307.426 34.04C308.322 34.552 308.994 35.128 309.442 35.768C309.89 36.408 310.162 36.888 310.258 37.208H310.354V33.272H315.394V53H311.17L310.354 49.784H310.258C310.162 50.072 309.874 50.52 309.394 51.128C308.946 51.704 308.258 52.248 307.33 52.76C306.434 53.24 305.25 53.48 303.778 53.48ZM305.794 49.352C307.586 49.352 308.786 48.792 309.394 47.672C310.034 46.52 310.354 45.112 310.354 43.448C310.354 41.688 310.034 40.264 309.394 39.176C308.754 38.088 307.554 37.544 305.794 37.544C304.546 37.544 303.57 37.816 302.866 38.36C302.194 38.904 301.714 39.624 301.426 40.52C301.17 41.384 301.042 42.36 301.042 43.448C301.042 44.536 301.17 45.528 301.426 46.424C301.714 47.32 302.194 48.04 302.866 48.584C303.57 49.096 304.546 49.352 305.794 49.352ZM332.392 33.272H337.192V34.088L330.424 53H323.608L316.84 34.136V33.272H321.544L327.064 48.968H327.16L332.392 33.272ZM348.648 53.48C346.376 53.48 344.52 53 343.08 52.04C341.672 51.048 340.616 49.8 339.912 48.296C339.24 46.76 338.888 45.144 338.856 43.448C338.824 41.464 339.192 39.704 339.96 38.168C340.76 36.6 341.88 35.384 343.32 34.52C344.792 33.624 346.52 33.176 348.504 33.176C350.264 33.176 351.832 33.56 353.208 34.328C354.616 35.096 355.736 36.184 356.568 37.592C357.4 38.968 357.832 40.6 357.864 42.488C357.864 42.552 357.864 42.728 357.864 43.016C357.864 43.304 357.864 43.544 357.864 43.736H343.512C343.512 45.56 343.96 46.968 344.856 47.96C345.752 48.92 346.984 49.4 348.552 49.4C349.768 49.4 350.776 49.096 351.576 48.488C352.408 47.88 352.904 47.08 353.064 46.088H357.816C357.592 48.168 356.696 49.928 355.128 51.368C353.56 52.776 351.4 53.48 348.648 53.48ZM343.656 41.528H352.968C352.936 41.304 352.856 40.952 352.728 40.472C352.632 39.992 352.424 39.496 352.104 38.984C351.816 38.472 351.368 38.04 350.76 37.688C350.152 37.336 349.368 37.16 348.408 37.16C347.128 37.16 346.152 37.432 345.48 37.976C344.84 38.488 344.376 39.096 344.088 39.8C343.832 40.472 343.688 41.048 343.656 41.528Z" fill="#171923"/>
<line x1="1" y1="34.5" x2="128" y2="34.5" stroke="#E2E8F0"/>
<line x1="375" y1="34.5" x2="502" y2="34.5" stroke="#E2E8F0"/>
<g clip-path="url(#clip0_175_53)">
<path d="M217.171 121.034C217.077 128.456 223.786 132.598 228.84 135.061C234.032 137.587 235.776 139.208 235.756 141.467C235.717 144.925 231.614 146.451 227.774 146.511C221.076 146.614 217.181 144.702 214.085 143.256L211.671 154.547C214.778 155.979 220.53 157.227 226.496 157.282C240.498 157.282 249.659 150.37 249.708 139.654C249.763 126.053 230.896 125.3 231.025 119.221C231.069 117.377 232.828 115.41 236.682 114.91C238.59 114.657 243.857 114.464 249.828 117.214L252.171 106.289C248.96 105.12 244.833 104 239.695 104C226.516 104 217.246 111.006 217.171 121.034ZM274.69 104.941C272.133 104.941 269.978 106.432 269.017 108.721L249.015 156.48H263.007L265.791 148.785H282.89L284.505 156.48H296.837L286.075 104.941H274.69ZM276.647 118.864L280.685 138.217H269.626L276.647 118.864ZM200.206 104.942L189.177 156.479H202.511L213.535 104.94L200.206 104.942ZM180.482 104.942L166.604 140.02L160.99 110.193C160.331 106.864 157.73 104.941 154.841 104.941H132.155L131.837 106.438C136.495 107.448 141.786 109.078 144.992 110.822C146.954 111.888 147.513 112.819 148.158 115.351L158.791 156.48H172.881L194.483 104.941L180.482 104.942Z" fill="url(#paint0_linear_175_53)"/>
</g>
<path d="M14.0975 168.965V163.765C14.0975 161.772 12.8839 160.472 10.8038 160.472C9.76387 160.472 8.63713 160.819 7.85702 161.945C7.25062 160.992 6.38404 160.472 5.08399 160.472C4.21702 160.472 3.35084 160.732 2.65719 161.685V160.645H0.837189V168.965H2.65719V164.372C2.65719 162.899 3.4373 162.205 4.6509 162.205C5.86371 162.205 6.4709 162.985 6.4709 164.372V168.965H8.2909V164.372C8.2909 162.899 9.15708 162.205 10.2838 162.205C11.4974 162.205 12.1038 162.985 12.1038 164.372V168.965H14.0975ZM41.0505 160.645H38.1042V158.132H36.2842V160.645H34.6375V162.292H36.2838V166.105C36.2838 168.012 37.0639 169.138 39.144 169.138C39.9242 169.138 40.7903 168.879 41.3975 168.532L40.8772 166.972C40.3572 167.318 39.7508 167.405 39.3174 167.405C38.4508 167.405 38.1042 166.885 38.1042 166.018V162.292H41.0505V160.645ZM56.4775 160.472C55.4376 160.472 54.7443 160.992 54.3108 161.685V160.645H52.4908V168.965H54.3108V164.285C54.3108 162.899 54.9172 162.119 56.044 162.119C56.3906 162.119 56.8241 162.206 57.1707 162.292L57.6907 160.559C57.344 160.472 56.8241 160.472 56.4775 160.472M33.1641 161.339C32.2971 160.732 31.0839 160.472 29.7839 160.472C27.7041 160.472 26.3176 161.512 26.3176 163.159C26.3176 164.546 27.3575 165.326 29.1775 165.586L30.044 165.673C30.9975 165.846 31.5174 166.106 31.5174 166.539C31.5174 167.146 30.8242 167.579 29.6106 167.579C28.397 167.579 27.4439 167.146 26.8371 166.712L25.9706 168.099C26.924 168.792 28.224 169.139 29.5237 169.139C31.9505 169.139 33.3374 168.013 33.3374 166.452C33.3374 164.979 32.2107 164.199 30.4771 163.939L29.6106 163.852C28.8304 163.765 28.224 163.592 28.224 163.072C28.224 162.466 28.8304 162.119 29.7839 162.119C30.8242 162.119 31.864 162.552 32.384 162.812L33.1641 161.339ZM81.5244 160.472C80.4841 160.472 79.7908 160.992 79.3574 161.686V160.646H77.5374V168.966H79.3574V164.286C79.3574 162.899 79.9642 162.119 81.0905 162.119C81.4375 162.119 81.871 162.206 82.2176 162.292L82.7376 160.559C82.391 160.472 81.871 160.472 81.5244 160.472ZM58.2975 164.806C58.2975 167.319 60.0306 169.139 62.7176 169.139C63.9308 169.139 64.7974 168.879 65.6639 168.186L64.7974 166.712C64.1041 167.232 63.4108 167.492 62.6307 167.492C61.1574 167.492 60.1175 166.452 60.1175 164.806C60.1175 163.246 61.1574 162.205 62.6307 162.119C63.4108 162.119 64.1041 162.379 64.7974 162.899L65.6639 161.426C64.7974 160.732 63.9308 160.472 62.7176 160.472C60.0306 160.472 58.2975 162.292 58.2975 164.806ZM75.111 164.806V160.646H73.291V161.686C72.6842 160.906 71.8176 160.472 70.6908 160.472C68.3509 160.472 66.5309 162.292 66.5309 164.806C66.5309 167.319 68.3509 169.139 70.6908 169.139C71.904 169.139 72.771 168.706 73.291 167.926V168.966H75.111V164.806ZM68.4374 164.806C68.4374 163.332 69.3908 162.119 70.9506 162.119C72.424 162.119 73.4643 163.246 73.4643 164.806C73.4643 166.279 72.424 167.492 70.9506 167.492C69.3908 167.405 68.4374 166.279 68.4374 164.806ZM46.6842 160.472C44.2574 160.472 42.5239 162.206 42.5239 164.806C42.5239 167.406 44.257 169.139 46.7707 169.139C47.9839 169.139 49.1975 168.792 50.1509 168.013L49.2839 166.712C48.5907 167.232 47.7241 167.579 46.8575 167.579C45.7308 167.579 44.604 167.059 44.3439 165.585H50.4975V164.892C50.5844 162.206 49.0246 160.472 46.6842 160.472ZM46.6838 162.032C47.8102 162.032 48.5907 162.726 48.7636 164.026H44.4303C44.6036 162.899 45.3838 162.032 46.6838 162.032ZM91.8372 164.806V157.352H90.0172V161.686C89.4104 160.906 88.5438 160.472 87.4171 160.472C85.0771 160.472 83.2571 162.292 83.2571 164.806C83.2571 167.319 85.0771 169.139 87.4171 169.139C88.6307 169.139 89.4972 168.706 90.0172 167.926V168.966H91.8372V164.806ZM85.164 164.806C85.164 163.332 86.117 162.119 87.6772 162.119C89.1506 162.119 90.1905 163.246 90.1905 164.806C90.1905 166.279 89.1506 167.492 87.6772 167.492C86.117 167.405 85.164 166.279 85.164 164.806ZM24.3235 164.806V160.646H22.5035V161.686C21.8967 160.906 21.0301 160.472 19.9034 160.472C17.5634 160.472 15.7434 162.292 15.7434 164.806C15.7434 167.319 17.5634 169.139 19.9034 169.139C21.117 169.139 21.9835 168.706 22.5035 167.926V168.966H24.3235V164.806ZM17.5634 164.806C17.5634 163.332 18.5169 162.119 20.0767 162.119C21.5501 162.119 22.5903 163.246 22.5903 164.806C22.5903 166.279 21.5501 167.492 20.0767 167.492C18.5169 167.405 17.5634 166.279 17.5634 164.806Z" fill="black"/>
<path d="M34.1379 100.004H58.6989V144.136H34.1379V100.004Z" fill="#FF5F00"/>
<path d="M35.6975 122.07C35.6975 113.103 39.9079 105.15 46.3793 100.004C41.6234 96.2611 35.6198 94 29.0702 94C13.5533 94 1 106.553 1 122.07C1 137.586 13.5533 150.14 29.0698 150.14C35.6194 150.14 41.6231 147.879 46.3793 144.136C39.9079 139.067 35.6975 131.036 35.6975 122.07Z" fill="#EB001B"/>
<path d="M91.8369 122.07C91.8369 137.586 79.2836 150.14 63.767 150.14C57.2175 150.14 51.2138 147.879 46.4575 144.136C53.0071 138.99 57.1397 131.036 57.1397 122.07C57.1397 113.103 52.929 105.15 46.4575 100.004C51.2134 96.2611 57.2175 94 63.767 94C79.2836 94 91.8369 106.631 91.8369 122.07Z" fill="#F79E1B"/>
<path d="M497.599 98H341.346C338.915 98 336.945 99.97 336.945 102.4V158.6C336.945 161.03 338.915 163 341.346 163H497.599C500.029 163 502 161.03 502 158.6V102.4C502 99.97 500.029 98 497.599 98Z" fill="#00425F"/>
<path d="M375.127 153.001C388.193 153.001 398.785 142.412 398.785 129.35C398.785 116.289 388.193 105.7 375.127 105.7C362.061 105.7 351.469 116.289 351.469 129.35C351.469 142.412 362.061 153.001 375.127 153.001Z" fill="#EE312A"/>
<path d="M375.127 139.44C369.838 127.456 365.96 116.26 365.96 116.26H357.851C357.851 116.26 362.787 130.63 371.954 148.601H378.3C387.468 130.63 392.403 116.26 392.403 116.26H384.294C384.294 116.26 380.416 127.456 375.127 139.44Z" fill="white"/>
<path d="M488.16 137.94H472.359C472.359 137.94 472.71 143.247 479.733 143.247C483.244 143.247 486.756 142.185 486.756 142.185L487.458 147.846C487.458 147.846 483.947 149.261 479.031 149.261C472.008 149.261 465.688 145.723 465.688 135.817C465.688 128.033 470.603 123.08 477.626 123.08C488.16 123.08 488.862 133.694 488.16 137.94ZM477.275 128.033C472.71 128.033 472.359 132.986 472.359 132.986H482.191C482.191 132.986 481.84 128.033 477.275 128.033Z" fill="white"/>
<path d="M433.604 129.598L434.657 123.967C434.657 123.967 426.524 121.493 419.912 126.078V148.601H426.934L426.934 130.301C429.742 128.19 433.604 129.598 433.604 129.598Z" fill="white"/>
<path d="M414.436 137.94H398.635C398.635 137.94 398.986 143.247 406.008 143.247C409.52 143.247 413.031 142.185 413.031 142.185L413.733 147.846C413.733 147.846 410.222 149.261 405.306 149.261C398.283 149.261 391.963 145.723 391.963 135.817C391.963 128.033 396.879 123.08 403.902 123.08C414.436 123.08 415.138 133.694 414.436 137.94ZM403.55 128.033C398.986 128.033 398.635 132.986 398.635 132.986H408.466C408.466 132.986 408.115 128.033 403.55 128.033Z" fill="white"/>
<path d="M450.723 140.154C448.534 134.83 446.767 129.342 445.441 123.74L438.399 123.741C438.399 123.741 441.92 137.336 447.906 148.601H453.539C459.526 137.336 463.047 123.744 463.047 123.744H456.005C454.678 129.344 452.912 134.831 450.723 140.154Z" fill="white"/>
<g filter="url(#filter0_d_175_53)">
<rect x="110" y="208.69" width="282.8" height="54" rx="7.73333" fill="#D2A63C"/>
<rect x="110.483" y="209.173" width="281.833" height="53.0333" rx="7.25" stroke="#D2A63C" stroke-width="0.966667"/>
<path d="M129.024 240.856V230.03H133.587C134.742 230.03 135.757 230.257 136.634 230.71C137.52 231.164 138.206 231.798 138.691 232.613C139.186 233.427 139.433 234.371 139.433 235.443C139.433 236.515 139.186 237.459 138.691 238.274C138.206 239.088 137.52 239.722 136.634 240.176C135.757 240.63 134.742 240.856 133.587 240.856H129.024ZM130.571 239.511H133.494C134.391 239.511 135.164 239.341 135.814 239C136.474 238.66 136.984 238.186 137.345 237.578C137.706 236.959 137.886 236.247 137.886 235.443C137.886 234.629 137.706 233.917 137.345 233.309C136.984 232.7 136.474 232.226 135.814 231.886C135.164 231.546 134.391 231.375 133.494 231.375H130.571V239.511ZM146.69 240.98C145.865 240.98 145.097 240.841 144.385 240.563C143.684 240.284 143.076 239.898 142.56 239.403C142.044 238.897 141.642 238.31 141.354 237.639C141.065 236.969 140.921 236.237 140.921 235.443C140.921 234.649 141.065 233.917 141.354 233.247C141.642 232.577 142.044 231.994 142.56 231.499C143.076 230.994 143.684 230.602 144.385 230.324C145.086 230.045 145.854 229.906 146.69 229.906C147.514 229.906 148.272 230.045 148.963 230.324C149.664 230.592 150.273 230.978 150.788 231.484C151.314 231.979 151.716 232.561 151.995 233.231C152.283 233.902 152.428 234.639 152.428 235.443C152.428 236.247 152.283 236.985 151.995 237.655C151.716 238.325 151.314 238.913 150.788 239.418C150.273 239.913 149.664 240.3 148.963 240.578C148.272 240.846 147.514 240.98 146.69 240.98ZM146.69 239.604C147.288 239.604 147.839 239.501 148.345 239.294C148.86 239.088 149.303 238.799 149.675 238.428C150.056 238.047 150.35 237.603 150.556 237.098C150.773 236.593 150.881 236.041 150.881 235.443C150.881 234.845 150.773 234.293 150.556 233.788C150.35 233.283 150.056 232.845 149.675 232.474C149.303 232.092 148.86 231.798 148.345 231.592C147.839 231.386 147.288 231.283 146.69 231.283C146.081 231.283 145.519 231.386 145.004 231.592C144.498 231.798 144.055 232.092 143.674 232.474C143.292 232.845 142.993 233.283 142.777 233.788C142.57 234.293 142.467 234.845 142.467 235.443C142.467 236.041 142.57 236.593 142.777 237.098C142.993 237.603 143.292 238.047 143.674 238.428C144.055 238.799 144.498 239.088 145.004 239.294C145.519 239.501 146.081 239.604 146.69 239.604ZM154.792 240.856V230.03H156.06L163.221 238.923H162.556V230.03H164.103V240.856H162.834L155.673 231.963H156.338V240.856H154.792ZM165.704 240.856L170.607 230.03H172.138L177.056 240.856H175.432L171.055 230.896H171.674L167.297 240.856H165.704ZM167.792 238.15L168.209 236.912H174.303L174.752 238.15H167.792ZM180.278 240.856V231.375H176.566V230.03H185.521V231.375H181.809V240.856H180.278ZM188.613 234.701H194.181V236.015H188.613V234.701ZM188.752 239.511H195.062V240.856H187.205V230.03H194.846V231.375H188.752V239.511ZM206.206 240.98C204.783 240.98 203.664 240.573 202.849 239.758C202.035 238.944 201.628 237.753 201.628 236.186V230.03H203.174V236.124C203.174 237.33 203.437 238.212 203.963 238.768C204.499 239.325 205.252 239.604 206.221 239.604C207.201 239.604 207.953 239.325 208.479 238.768C209.015 238.212 209.284 237.33 209.284 236.124V230.03H210.784V236.186C210.784 237.753 210.377 238.944 209.562 239.758C208.758 240.573 207.639 240.98 206.206 240.98ZM217.11 240.98C216.285 240.98 215.496 240.856 214.744 240.609C213.991 240.351 213.398 240.021 212.965 239.619L213.537 238.413C213.95 238.774 214.475 239.073 215.115 239.31C215.754 239.547 216.419 239.666 217.11 239.666C217.739 239.666 218.249 239.593 218.641 239.449C219.033 239.305 219.322 239.109 219.507 238.861C219.693 238.603 219.786 238.315 219.786 237.995C219.786 237.624 219.662 237.325 219.414 237.098C219.177 236.871 218.863 236.691 218.471 236.557C218.089 236.412 217.667 236.289 217.203 236.186C216.739 236.082 216.27 235.964 215.795 235.83C215.331 235.685 214.903 235.505 214.512 235.288C214.13 235.072 213.821 234.783 213.584 234.422C213.346 234.051 213.228 233.577 213.228 232.999C213.228 232.443 213.372 231.932 213.661 231.468C213.96 230.994 214.414 230.618 215.022 230.339C215.641 230.05 216.424 229.906 217.373 229.906C218.002 229.906 218.626 229.989 219.244 230.154C219.863 230.318 220.399 230.556 220.853 230.865L220.342 232.102C219.878 231.793 219.389 231.571 218.873 231.437C218.358 231.293 217.857 231.221 217.373 231.221C216.764 231.221 216.264 231.298 215.873 231.453C215.481 231.607 215.192 231.814 215.006 232.071C214.831 232.329 214.744 232.618 214.744 232.938C214.744 233.319 214.862 233.623 215.099 233.85C215.347 234.077 215.661 234.257 216.043 234.391C216.435 234.525 216.862 234.649 217.326 234.763C217.79 234.866 218.254 234.984 218.718 235.118C219.193 235.252 219.621 235.428 220.002 235.644C220.394 235.861 220.708 236.149 220.946 236.51C221.183 236.871 221.301 237.335 221.301 237.902C221.301 238.449 221.152 238.959 220.853 239.434C220.554 239.898 220.09 240.274 219.461 240.563C218.842 240.841 218.059 240.98 217.11 240.98ZM223.561 240.856V230.03H225.108V240.856H223.561ZM228.349 240.856V230.03H229.617L236.778 238.923H236.113V230.03H237.66V240.856H236.392L229.231 231.963H229.896V240.856H228.349ZM245.788 240.98C244.953 240.98 244.185 240.846 243.483 240.578C242.782 240.3 242.174 239.913 241.658 239.418C241.143 238.913 240.741 238.325 240.452 237.655C240.163 236.985 240.019 236.247 240.019 235.443C240.019 234.639 240.163 233.902 240.452 233.231C240.741 232.561 241.143 231.979 241.658 231.484C242.184 230.978 242.798 230.592 243.499 230.324C244.2 230.045 244.973 229.906 245.819 229.906C246.675 229.906 247.458 230.045 248.17 230.324C248.881 230.602 249.485 231.02 249.979 231.576L249.021 232.535C248.577 232.102 248.093 231.788 247.567 231.592C247.051 231.386 246.489 231.283 245.881 231.283C245.262 231.283 244.685 231.386 244.149 231.592C243.623 231.798 243.164 232.087 242.772 232.458C242.391 232.829 242.091 233.273 241.875 233.788C241.669 234.293 241.566 234.845 241.566 235.443C241.566 236.031 241.669 236.582 241.875 237.098C242.091 237.603 242.391 238.047 242.772 238.428C243.164 238.799 243.623 239.088 244.149 239.294C244.674 239.501 245.247 239.604 245.865 239.604C246.443 239.604 246.994 239.516 247.52 239.341C248.056 239.155 248.551 238.851 249.005 238.428L249.887 239.604C249.351 240.057 248.722 240.403 248 240.64C247.288 240.867 246.551 240.98 245.788 240.98ZM248.402 239.403V235.381H249.887V239.604L248.402 239.403ZM258.394 235.149H263.977V236.479H258.394V235.149ZM258.548 240.856H257.002V230.03H264.642V231.375H258.548V240.856ZM266.819 240.856V230.03H268.366V239.511H274.228V240.856H266.819ZM280.307 240.98C278.884 240.98 277.765 240.573 276.95 239.758C276.136 238.944 275.729 237.753 275.729 236.186V230.03H277.275V236.124C277.275 237.33 277.538 238.212 278.064 238.768C278.6 239.325 279.353 239.604 280.322 239.604C281.302 239.604 282.054 239.325 282.58 238.768C283.116 238.212 283.385 237.33 283.385 236.124V230.03H284.885V236.186C284.885 237.753 284.478 238.944 283.663 239.758C282.859 240.573 281.74 240.98 280.307 240.98ZM290.009 240.856V231.375H286.297V230.03H295.252V231.375H291.54V240.856H290.009ZM299.238 240.856V231.375H295.526V230.03H304.481V231.375H300.769V240.856H299.238ZM307.573 234.701H313.141V236.015H307.573V234.701ZM307.712 239.511H314.023V240.856H306.166V230.03H313.806V231.375H307.712V239.511ZM316.527 240.856V230.03H320.75C321.698 230.03 322.508 230.179 323.178 230.478C323.848 230.777 324.364 231.21 324.724 231.778C325.085 232.345 325.266 233.02 325.266 233.804C325.266 234.587 325.085 235.263 324.724 235.83C324.364 236.387 323.848 236.814 323.178 237.114C322.508 237.413 321.698 237.562 320.75 237.562H317.378L318.074 236.851V240.856H316.527ZM323.766 240.856L321.012 236.928H322.667L325.451 240.856H323.766ZM318.074 237.005L317.378 236.247H320.703C321.693 236.247 322.441 236.036 322.946 235.613C323.461 235.18 323.719 234.577 323.719 233.804C323.719 233.03 323.461 232.432 322.946 232.01C322.441 231.587 321.693 231.375 320.703 231.375H317.378L318.074 230.602V237.005ZM330.255 240.856L326.636 230.03H328.229L331.554 240.021H330.75L334.199 230.03H335.622L338.993 240.021H338.22L341.592 230.03H343.061L339.442 240.856H337.818L334.663 231.592H335.08L331.91 240.856H330.255ZM342.966 240.856L347.869 230.03H349.4L354.319 240.856H352.695L348.318 230.896H348.936L344.559 240.856H342.966ZM345.054 238.15L345.472 236.912H351.566L352.014 238.15H345.054ZM358.484 240.856L353.72 230.03H355.391L359.768 240.021H358.809L363.217 230.03H364.764L360.015 240.856H358.484ZM367.552 234.701H373.12V236.015H367.552V234.701ZM367.691 239.511H374.001V240.856H366.144V230.03H373.785V231.375H367.691V239.511Z" fill="white"/>
</g>
<line x1="1.002" y1="208.19" x2="501.998" y2="210.194" stroke="#E2E8F0"/>
<defs>
<filter id="filter0_d_175_53" x="108.067" y="207.723" width="286.667" height="57.8667" filterUnits="userSpaceOnUse" color-interpolation-filters="sRGB">
<feFlood flood-opacity="0" result="BackgroundImageFix"/>
<feColorMatrix in="SourceAlpha" type="matrix" values="0 0 0 0 0 0 0 0 0 0 0 0 0 0 0 0 0 0 127 0" result="hardAlpha"/>
<feOffset dy="0.966667"/>
<feGaussianBlur stdDeviation="0.966667"/>
<feColorMatrix type="matrix" values="0 0 0 0 0.0627451 0 0 0 0 0.0941176 0 0 0 0 0.156863 0 0 0 0.05 0"/>
<feBlend mode="normal" in2="BackgroundImageFix" result="effect1_dropShadow_175_53"/>
<feBlend mode="normal" in="SourceGraphic" in2="effect1_dropShadow_175_53" result="shape"/>
</filter>
<linearGradient id="paint0_linear_175_53" x1="7717.55" y1="264.166" x2="7871.78" y2="-5207.98" gradientUnits="userSpaceOnUse">
<stop stop-color="#222357"/>
<stop offset="1" stop-color="#254AA5"/>
</linearGradient>
<clipPath id="clip0_175_53">
<rect width="165" height="53.4961" fill="white" transform="translate(131.837 104)"/>
</clipPath>
</defs>
</svg>
