<svg width="124" height="128" viewBox="0 0 124 128" fill="none" xmlns="http://www.w3.org/2000/svg">
<path d="M42.59 4.20998C29.8008 8.64667 18.7714 17.0676 11.1219 28.236C3.47239 39.4044 -0.39408 52.7314 0.0904292 66.2596C0.574939 79.7879 5.38489 92.8042 13.8138 103.397C22.2427 113.989 33.8462 121.6 46.92 125.11C57.5192 127.845 68.6241 127.965 79.28 125.46C88.9332 123.292 97.8578 118.654 105.18 112C112.801 104.863 118.332 95.7848 121.18 85.74C124.275 74.8167 124.826 63.3293 122.79 52.16H63.27V76.85H97.74C97.0511 80.7879 95.5748 84.5463 93.3995 87.9003C91.2242 91.2543 88.3946 94.135 85.08 96.37C80.8708 99.1543 76.126 101.028 71.15 101.87C66.1594 102.798 61.0406 102.798 56.05 101.87C50.9919 100.824 46.207 98.7366 42 95.74C35.2415 90.9559 30.1668 84.1592 27.5 76.32C24.7882 68.3339 24.7882 59.676 27.5 51.69C29.3983 46.0921 32.5363 40.9953 36.68 36.78C41.4219 31.8675 47.4253 28.3559 54.0316 26.6307C60.6378 24.9055 67.5916 25.0333 74.13 27C79.2377 28.5679 83.9085 31.3074 87.77 35C91.6567 31.1333 95.5367 27.2566 99.41 23.37C101.41 21.28 103.59 19.29 105.56 17.15C99.6656 11.6647 92.7468 7.39655 85.2 4.58998C71.457 -0.40012 56.4198 -0.534225 42.59 4.20998Z" fill="white"/>
<path d="M42.59 4.21002C56.4186 -0.537411 71.4559 -0.406837 85.2 4.58002C92.7482 7.40566 99.6638 11.6944 105.55 17.2C103.55 19.34 101.44 21.34 99.4 23.42C95.52 27.2934 91.6433 31.1534 87.77 35C83.9085 31.3074 79.2377 28.5679 74.13 27C67.5938 25.0264 60.6402 24.8913 54.0322 26.6094C47.4242 28.3276 41.4171 31.8326 36.67 36.74C32.5263 40.9554 29.3883 46.0522 27.49 51.65L6.76001 35.6C14.1801 20.8856 27.0275 9.63026 42.59 4.21002Z" fill="#E33629"/>
<path d="M1.25999 51.5C2.3742 45.9779 4.22403 40.6302 6.75999 35.6L27.49 51.69C24.7781 59.676 24.7781 68.3339 27.49 76.32C20.5833 81.6533 13.6733 87.0133 6.75999 92.4C0.411498 79.7631 -1.52468 65.365 1.25999 51.5Z" fill="#F8BD00"/>
<path d="M63.27 52.15H122.79C124.826 63.3194 124.275 74.8067 121.18 85.73C118.332 95.7748 112.801 104.853 105.18 111.99C98.49 106.77 91.77 101.59 85.08 96.37C88.3968 94.1328 91.2277 91.249 93.4031 87.8913C95.5785 84.5337 97.0536 80.7715 97.74 76.83H63.27C63.26 68.61 63.27 60.38 63.27 52.15Z" fill="#587DBD"/>
<path d="M6.75 92.4C13.6633 87.0667 20.5733 81.7067 27.48 76.32C30.1521 84.162 35.234 90.9589 42 95.74C46.2201 98.7226 51.0153 100.793 56.08 101.82C61.0706 102.748 66.1894 102.748 71.18 101.82C76.156 100.978 80.9008 99.1043 85.11 96.32C91.8 101.54 98.52 106.72 105.21 111.94C97.8889 118.597 88.9642 123.239 79.31 125.41C68.6541 127.915 57.5492 127.795 46.95 125.06C38.567 122.822 30.7368 118.876 23.95 113.47C16.7666 107.767 10.8996 100.58 6.75 92.4Z" fill="#319F43"/>
</svg>
